<svg width="42" height="45" viewBox="0 0 42 45" fill="none" xmlns="http://www.w3.org/2000/svg">
<rect width="42" height="45" rx="21" fill="#FFD5D5"/>
<path d="M27.6665 11.1666H14.3332C10.3332 11.1666 7.6665 13.1666 7.6665 17.8333V27.1666C7.6665 31.8333 10.3332 33.8333 14.3332 33.8333H27.6665C31.6665 33.8333 34.3332 31.8333 34.3332 27.1666V17.8333C34.3332 13.1666 31.6665 11.1666 27.6665 11.1666ZM28.2932 19.2866L24.1198 22.62C23.2398 23.3266 22.1198 23.6733 20.9998 23.6733C19.8798 23.6733 18.7465 23.3266 17.8798 22.62L13.7065 19.2866C13.2798 18.94 13.2132 18.3 13.5465 17.8733C13.8932 17.4466 14.5198 17.3666 14.9465 17.7133L19.1198 21.0466C20.1332 21.86 21.8532 21.86 22.8665 21.0466L27.0398 17.7133C27.4665 17.3666 28.1065 17.4333 28.4398 17.8733C28.7865 18.3 28.7198 18.94 28.2932 19.2866Z" fill="#C02E2E"/>
</svg>
