<svg width="32" height="32" viewBox="0 0 32 32" fill="none" xmlns="http://www.w3.org/2000/svg">
<path d="M23.8912 19.0933C23.5459 19.4279 23.3872 19.9119 23.4659 20.3866L24.6512 26.9466C24.7512 27.5026 24.5165 28.0653 24.0512 28.3866C23.5952 28.7199 22.9885 28.7599 22.4912 28.4933L16.5859 25.4132C16.3805 25.3039 16.1525 25.2453 15.9192 25.2386H15.5579C15.4325 25.2573 15.3099 25.2972 15.1979 25.3586L9.29118 28.4533C8.99918 28.5999 8.66852 28.6519 8.34452 28.5999C7.55518 28.4506 7.02852 27.6986 7.15785 26.9053L8.34452 20.3453C8.42318 19.8666 8.26452 19.3799 7.91918 19.0399L3.10452 14.3733C2.70185 13.9826 2.56185 13.3959 2.74585 12.8666C2.92452 12.3386 3.38052 11.9533 3.93118 11.8666L10.5579 10.9053C11.0619 10.8533 11.5045 10.5466 11.7312 10.0933L14.6512 4.10659C14.7205 3.97325 14.8099 3.85059 14.9179 3.74659L15.0378 3.65325C15.1005 3.58392 15.1725 3.52659 15.2525 3.47992L15.3979 3.42659L15.6245 3.33325H16.1858C16.6872 3.38525 17.1285 3.68525 17.3592 4.13325L20.3179 10.0933C20.5312 10.5293 20.9459 10.8319 21.4245 10.9053L28.0512 11.8666C28.6112 11.9466 29.0792 12.3333 29.2645 12.8666C29.4392 13.4013 29.2885 13.9879 28.8779 14.3733L23.8912 19.0933Z" fill="#FF6B00"/>
</svg>
